HIERARCHY
ROOT Hips
{
	OFFSET 0.000000 0.000000 0.000000
	CHANNELS 6 Xposition Yposition Zposition Xrotation Yrotation Zrotation
	JOINT LeftUpLeg_virtual
	{
		OFFSET 0.000000 0.000000 0.000000
		CHANNELS 3 Xrotation Yrotation Zrotation
		JOINT LeftUpLeg
		{
			OFFSET 11.394100 -6.187798 -0.413800
			CHANNELS 3 Xrotation Yrotation Zrotation
			JOINT LeftLeg
			{
				OFFSET 0.430247 -32.302673 3.732800
				CHANNELS 3 Xrotation Yrotation Zrotation
				JOINT LeftFoot
				{
					OFFSET -0.430247 -48.264931 -6.423300
					CHANNELS 3 Xrotation Yrotation Zrotation
					JOINT LeftToeBase
					{
						OFFSET 4.230900 -16.068199 23.438400
						CHANNELS 3 Xrotation Yrotation Zrotation
						JOINT LeftToe_End
						{
							OFFSET 4.510700 0.695400 19.974600
							CHANNELS 3 Xrotation Yrotation Zrotation
							End Site
							{
								OFFSET 0 0 0
							}
						}
					}
				}
			}
		}
	}
	JOINT RightUpLeg_virtual
	{
		OFFSET 0.000000 0.000000 0.000000
		CHANNELS 3 Xrotation Yrotation Zrotation
		JOINT RightUpLeg
		{
			OFFSET -11.333700 -6.187798 -0.413800
			CHANNELS 3 Xrotation Yrotation Zrotation
			JOINT RightLeg
			{
				OFFSET -0.430392 -32.302628 3.733000
				CHANNELS 3 Xrotation Yrotation Zrotation
				JOINT RightFoot
				{
					OFFSET 0.430392 -48.264973 -6.423500
					CHANNELS 3 Xrotation Yrotation Zrotation
					JOINT RightToeBase
					{
						OFFSET -4.230900 -16.068199 23.438400
						CHANNELS 3 Xrotation Yrotation Zrotation
						JOINT RightToe_End
						{
							OFFSET -4.510700 0.695400 19.974600
							CHANNELS 3 Xrotation Yrotation Zrotation
							End Site
							{
								OFFSET 0 0 0
							}
						}
					}
				}
			}
		}
	}
	JOINT Spine_virtual
	{
		OFFSET 0.000000 0.000000 0.000000
		CHANNELS 3 Xrotation Yrotation Zrotation
		JOINT Spine
		{
			OFFSET -0.002400 12.777504 0.315300
			CHANNELS 3 Xrotation Yrotation Zrotation
			JOINT Spine1
			{
				OFFSET -0.002067 5.816869 0.032633
				CHANNELS 3 Xrotation Yrotation Zrotation
				JOINT Spine1_split
				{
					OFFSET -0.002067 5.816869 0.032633
					CHANNELS 3 Xrotation Yrotation Zrotation
					JOINT Spine2
					{
						OFFSET -0.002067 5.816869 0.032633
						CHANNELS 3 Xrotation Yrotation Zrotation
						JOINT Neck_virtual
						{
							OFFSET 0.000000 0.000000 0.000000
							CHANNELS 3 Xrotation Yrotation Zrotation
							JOINT Neck
							{
								OFFSET -0.003700 21.199493 -0.826900
								CHANNELS 3 Xrotation Yrotation Zrotation
								JOINT Head
								{
									OFFSET 0.000000 20.442200 4.834800
									CHANNELS 3 Xrotation Yrotation Zrotation
									JOINT HeadTop_End
									{
										OFFSET 0.000000 34.668396 4.968400
										CHANNELS 3 Xrotation Yrotation Zrotation
										End Site
										{
											OFFSET 0 0 0
										}
									}
								}
							}
						}
						JOINT LeftShoulder_virtual
						{
							OFFSET 0.000000 0.000000 0.000000
							CHANNELS 3 Xrotation Yrotation Zrotation
							JOINT LeftShoulder
							{
								OFFSET 3.288150 8.794197 -1.372250
								CHANNELS 3 Xrotation Yrotation Zrotation
								JOINT LeftShoulder_split
								{
									OFFSET 3.288150 8.794197 -1.372250
									CHANNELS 3 Xrotation Yrotation Zrotation
									JOINT LeftArm
									{
										OFFSET 11.953299 -2.279007 -0.146200
										CHANNELS 3 Xrotation Yrotation Zrotation
										JOINT LeftForeArm
										{
											OFFSET 18.448900 0.000000 0.000000
											CHANNELS 3 Xrotation Yrotation Zrotation
											JOINT LeftHand
											{
												OFFSET 29.527798 0.000000 0.000000
												CHANNELS 3 Xrotation Yrotation Zrotation
												End Site
												{
													OFFSET 0 0 0
												}
											}
										}
									}
								}
							}
						}
						JOINT RightShoulder_virtual
						{
							OFFSET 0.000000 0.000000 0.000000
							CHANNELS 3 Xrotation Yrotation Zrotation
							JOINT RightShoulder
							{
								OFFSET -3.249400 8.794197 -1.372250
								CHANNELS 3 Xrotation Yrotation Zrotation
								JOINT RightShoulder_split
								{
									OFFSET -3.249400 8.794197 -1.372250
									CHANNELS 3 Xrotation Yrotation Zrotation
									JOINT RightArm
									{
										OFFSET -11.953299 -2.279007 -0.146200
										CHANNELS 3 Xrotation Yrotation Zrotation
										JOINT RightForeArm
										{
											OFFSET -18.448900 0.000000 0.000000
											CHANNELS 3 Xrotation Yrotation Zrotation
											JOINT RightHand
											{
												OFFSET -29.527802 0.000000 0.000000
												CHANNELS 3 Xrotation Yrotation Zrotation
												End Site
												{
													OFFSET 0 0 0
												}
											}
										}
									}
								}
							}
						}
					}
				}
			}
		}
	}
}
MOTION
Frames: 5
Frame Time: 0.03333333
1.615603 82.343430 -0.128983 0.000000 0.000000 0.000000 -0.660142 -45.563338 3.645438 -45.809126 6.685577 21.171549 58.605263 -7.628980 1.292329 -11.692230 -10.491629 -8.409728 -3.456439 -0.812122 0.931433 0.000000 0.000000 0.000000 -1.655538 -45.193265 4.270705 -23.999383 -11.684524 -30.055742 61.871890 -0.152306 -4.937962 -23.590222 -11.616227 24.100558 -3.252643 -0.128484 0.556495 0.000000 0.000000 0.000000 -0.240841 -44.834605 4.651809 9.938307 11.481622 -3.460857 0.880607 3.797509 -1.858621 0.466743 -2.745270 1.403857 0.000000 0.000000 0.000000 2.219599 3.909818 -1.835660 -6.891712 11.254098 2.697597 5.509154 19.511810 1.017687 0.000000 0.000000 0.000000 1.509749 3.882018 -1.465983 1.136211 1.294046 -3.650086 -0.325459 -3.604040 1.389464 5.521716 0.263481 -37.230053 178.871617 -50.366477 178.604529 0.000000 0.000000 0.000000 0.792774 3.617889 -1.519657 2.231716 14.234876 -4.186925 -6.702493 -0.343702 1.725157 -59.372382 19.917554 63.138419 -159.675671 79.818294 158.767064 0.000000 0.000000 0.000000 
1.994681 82.658310 -0.068598 0.000000 0.000000 0.000000 -0.402556 -50.268591 3.463359 -40.859141 7.894226 21.506519 57.591151 -7.288147 0.267450 -15.423336 -6.785986 -8.094084 -3.944766 -0.902089 1.275728 0.000000 0.000000 0.000000 -1.316185 -49.826367 4.336342 -28.890713 -6.249109 -30.008593 63.337246 0.973098 -5.619611 -22.264159 -9.552921 23.715431 -2.092477 -0.017787 0.570141 0.000000 0.000000 0.000000 0.381525 -48.829480 4.882187 9.995310 11.194941 -2.609713 1.111030 3.558176 -1.807282 0.633954 -2.656287 1.269243 0.000000 0.000000 0.000000 2.463563 3.709961 -1.737020 -6.705081 12.292700 2.326524 4.174469 22.567097 -0.501529 0.000000 0.000000 0.000000 1.462229 3.682588 -1.380278 1.349088 1.997074 -1.682790 0.570412 -3.908275 0.749560 1.318337 4.915001 -32.254769 179.184603 -54.462651 178.712788 0.000000 0.000000 0.000000 0.785997 3.415112 -1.412276 1.879722 11.616968 -2.128890 -5.860142 -0.664317 2.077083 -60.744151 22.463533 68.022564 -168.311215 75.424249 167.297793 0.000000 0.000000 0.000000 
2.272322 82.826988 -0.121992 0.000000 0.000000 0.000000 -0.295108 -54.691883 2.833353 -36.813873 7.929630 21.704125 57.820748 -7.005859 -0.129410 -18.911278 -3.281359 -8.012633 -4.213666 -0.922270 1.309197 0.000000 0.000000 0.000000 -1.085201 -53.954041 3.886430 -32.780045 -1.828086 -29.311070 63.288273 1.968292 -6.132062 -20.613436 -7.507626 23.503910 -1.430976 0.147510 0.539327 0.000000 0.000000 0.000000 1.017250 -52.329880 4.558118 9.937963 10.329142 -1.992893 1.349425 2.969363 -1.748240 0.973024 -2.648313 1.160302 0.000000 0.000000 0.000000 2.703750 3.076284 -1.587205 -6.585145 13.401203 2.087648 3.050887 25.621865 -2.311360 0.000000 0.000000 0.000000 1.532058 3.056048 -1.324595 1.458218 2.593413 0.589353 0.681488 -2.290489 -0.101345 -7.444007 5.514901 -24.795342 178.755053 -66.102789 178.362317 0.000000 0.000000 0.000000 0.878756 2.822466 -1.420729 1.561457 9.830436 -0.546217 -5.189728 -1.457665 2.081905 -61.676588 24.991833 72.246476 -173.430306 71.679051 172.055129 0.000000 0.000000 0.000000 
2.421338 82.900146 -0.327797 0.000000 0.000000 0.000000 -0.574580 -57.752098 1.696930 -34.568807 6.725797 21.859701 59.195009 -7.013327 0.208939 -21.442720 -0.571490 -8.488225 -3.886180 -0.841682 0.988132 0.000000 0.000000 0.000000 -1.234148 -56.724236 2.781115 -34.766196 0.694969 -28.266967 61.828600 2.568119 -6.366855 -19.180571 -5.921272 23.341400 -1.434506 0.327540 0.556386 0.000000 0.000000 0.000000 1.294936 -54.695021 3.594445 9.786309 8.806951 -1.586359 1.525852 2.040957 -1.723156 1.336402 -2.448780 0.978428 0.000000 0.000000 0.000000 2.823984 2.026904 -1.516272 -6.497759 14.459526 2.043776 2.691753 28.360931 -4.288156 0.000000 0.000000 0.000000 1.925326 2.000612 -1.381819 1.538915 2.950388 2.689278 -0.282075 0.589061 -0.918419 -18.290367 1.073287 -17.485370 169.666858 -85.314786 169.486281 0.000000 0.000000 0.000000 1.085144 1.829930 -1.558802 1.331943 8.889610 0.521433 -5.178236 -2.183104 1.613170 -60.493326 27.465400 75.458721 -176.799597 68.264578 174.841996 0.000000 0.000000 0.000000 
2.426523 82.900314 -0.591492 0.000000 0.000000 0.000000 -1.212428 -58.607647 0.129595 -34.441980 4.753257 21.892865 61.063209 -7.196134 1.116157 -22.412335 0.928117 -9.616444 -3.293020 -0.658445 0.506383 0.000000 0.000000 0.000000 -1.764889 -57.590980 1.158625 -34.428354 0.855201 -27.245900 59.550978 2.536327 -6.332237 -18.502393 -5.216062 23.087798 -2.006971 0.474257 0.662512 0.000000 0.000000 0.000000 1.171146 -55.620013 2.180537 9.516937 6.853418 -1.371451 1.657282 0.984866 -1.777559 1.277130 -2.279896 0.429003 0.000000 0.000000 0.000000 2.788750 0.827002 -1.589892 -6.512060 15.235787 2.180615 3.041597 30.284424 -6.037220 0.000000 0.000000 0.000000 2.584904 0.749863 -1.516122 1.602969 3.192674 4.101129 -1.972904 3.363128 -1.325356 -27.397478 -6.485885 -13.418344 4.751849 -73.048231 4.640124 0.000000 0.000000 0.000000 1.460092 0.676241 -1.808638 1.281800 8.955529 1.048091 -5.869097 -2.166554 1.339186 -56.036600 29.969436 76.675239 -178.510901 64.433928 175.968090 0.000000 0.000000 0.000000 
